<svg width="25" height="24" viewBox="0 0 25 24" fill="none" xmlns="http://www.w3.org/2000/svg">
<path d="M13.2594 1.35563L15.7831 7.11188C15.8781 7.32847 16.0295 7.51562 16.2214 7.65381C16.4133 7.79199 16.6388 7.87615 16.8744 7.8975L23.0225 8.44875C23.7181 8.55 23.9956 9.40312 23.4913 9.89437L18.86 13.785C18.485 14.1 18.3144 14.595 18.4175 15.0731L19.7638 21.375C19.8819 22.0669 19.1563 22.5956 18.5338 22.2675L13.1675 19.125C12.9651 19.0062 12.7347 18.9435 12.5 18.9435C12.2653 18.9435 12.0349 19.0062 11.8325 19.125L6.46625 22.2656C5.84563 22.5919 5.11813 22.065 5.23625 21.3731L6.5825 15.0712C6.68375 14.5931 6.515 14.0981 6.14 13.7831L1.50688 9.89625C1.00438 9.40687 1.28188 8.55188 1.97563 8.45062L8.12375 7.89937C8.35929 7.87802 8.58479 7.79386 8.77673 7.65568C8.96867 7.5175 9.12002 7.33035 9.215 7.11375L11.7388 1.3575C12.0519 0.7275 12.9481 0.7275 13.2594 1.35563Z" fill="#FDD835"/>
<path d="M13.0756 7.4569L12.6481 3.21565C12.6313 2.9794 12.5825 2.5744 12.9613 2.5744C13.2613 2.5744 13.4244 3.19878 13.4244 3.19878L14.7069 6.60378C15.1906 7.8994 14.9919 8.34378 14.525 8.60628C13.9888 8.90628 13.1975 8.6719 13.0756 7.4569Z" fill="#FFFF8D"/>
<path d="M18.365 13.4081L22.0437 10.5375C22.2256 10.3856 22.5537 10.1438 22.2912 9.86813C22.0831 9.65063 21.5206 9.96376 21.5206 9.96376L18.3012 11.2219C17.3412 11.5538 16.7037 12.045 16.6475 12.6638C16.5744 13.4888 17.315 14.1244 18.365 13.4081Z" fill="#F4B400"/>
</svg>
